<?xml version="1.0" encoding="UTF-8"?>
<svg width="66px" height="66px" viewBox="0 0 66 66" version="1.1" xmlns="http://www.w3.org/2000/svg" xmlns:xlink="http://www.w3.org/1999/xlink">
    <title>Skills</title>
    <g id="Skills" stroke="none" stroke-width="1" fill="none" fill-rule="evenodd">
        <path d="M-7.58959546,25.5091396 L69.0091396,25.5091396 L69.0091396,34.5091396 L-7.58959546,34.5091396 C-9.19043873,33.0029325 -9.99086036,31.5008609 -9.99086036,30.0029248 C-9.99086036,28.5049888 -9.19043873,27.0070604 -7.58959546,25.5091396 Z" id="Rectangle" fill="#2ECA77" transform="translate(29.509140, 30.009140) rotate(45.000000) translate(-29.509140, -30.009140) "></path>
        <path d="M57,0 C57.8651388,0 58.7017668,0.12206884 59.4936002,0.349922496 L55.4895924,4.35355339 C53.9274952,5.91565056 53.9274952,8.44831047 55.4895924,10.0104076 C56.9996196,11.5204349 59.4165839,11.5707691 60.9870736,10.1614104 L61.1464466,10.0104076 L65.398412,5.75804157 C65.7869554,6.76390468 66,7.85707273 66,9 C66,13.9705627 61.9705627,18 57,18 C56.363768,18 55.7429553,17.9339817 55.1440388,17.8084218 L17.8084218,55.1440388 C17.9339817,55.7429553 18,56.363768 18,57 C18,61.9705627 13.9705627,66 9,66 C7.85707273,66 6.76390468,65.7869554 5.75804157,65.398412 L9.51040764,61.6464466 C11.0725048,60.0843494 11.0725048,57.5516895 9.51040764,55.9895924 C8.00038038,54.4795651 5.58341615,54.4292309 4.01292642,55.8385896 L3.85355339,55.9895924 L0.349636304,59.4926054 C0.121966627,58.7010661 0,57.8647765 0,57 C0,52.0294373 4.02943725,48 9,48 C9.97230925,48 10.9086067,48.154185 11.785776,48.4394387 L48.4394387,11.785776 C48.154185,10.9086067 48,9.97230925 48,9 C48,4.02943725 52.0294373,0 57,0 Z" id="Combined-Shape" fill="#2ECA77"></path>
        <path d="M62.104,56.105 L62.0555096,56 C64.9941917,62.252328 66.2907754,65.5639814 65.9452609,65.9349602 C65.600083,66.3054314 62.2849318,65.0880586 55.9998073,62.2828416 L62.104,56.105 Z" id="Combined-Shape" fill="#2ECA77"></path>
    </g>
</svg>