<?xml version="1.0" encoding="UTF-8"?>
<svg width="66px" height="66px" viewBox="0 0 66 66" version="1.1" xmlns="http://www.w3.org/2000/svg" xmlns:xlink="http://www.w3.org/1999/xlink">
    <title>SkillsCompact</title>
    <g id="SkillsCompact" stroke="none" stroke-width="1" fill="none" fill-rule="evenodd">
        <path d="M2.13603897,17.636039 L59.636039,17.636039 L59.636039,17.636039 L59.636039,34.636039 L2.13603897,34.636039 C-2.5583814,34.636039 -6.36396103,30.8304593 -6.36396103,26.136039 C-6.36396103,21.4416186 -2.5583814,17.636039 2.13603897,17.636039 Z" id="Rectangle" fill="#2ECA77" transform="translate(26.636039, 26.136039) rotate(45.000000) translate(-26.636039, -26.136039) "></path>
        <path d="M58.3570203,45.8270203 L59.6989248,47.1547354 C64.6884594,57.8817374 66.5369471,63.8944504 65.244388,65.1928744 C63.9518246,66.491294 58.1031027,64.4737081 47.6982223,59.1401169 L46.3630203,57.8210203 L58.3570203,45.8270203 Z" id="Combined-Shape" fill="#2ECA77"></path>
        <rect id="Rectangle" fill="#2ECA77" transform="translate(32.792893, 33.207107) rotate(-45.000000) translate(-32.792893, -33.207107) " x="8.29289322" y="24.7071068" width="49" height="17"></rect>
        <path d="M58.4731033,1.11310362 C62.6221509,3.14669718 65.4787993,7.41174608 65.4787993,12.344001 C65.4787993,19.2475604 59.8823587,24.844001 52.9787993,24.844001 C46.0752399,24.844001 40.4787993,19.2475604 40.4787993,12.344001 C40.4787993,7.41174608 43.3354478,3.14669718 47.4844953,1.11310362 C47.4803876,1.19008073 47.4787993,1.26685537 47.4787993,1.34400099 L47.4787993,1.34400099 L47.4787993,10.344001 C47.4787993,13.3815671 49.9412332,15.844001 52.9787993,15.844001 C56.0163654,15.844001 58.4787993,13.3815671 58.4787993,10.344001 L58.4787993,10.344001 L58.4787993,1.34400099 C58.4787993,1.26991401 58.4773345,1.19616917 58.4744321,1.12279385 Z" id="Combined-Shape" fill="#2ECA77" transform="translate(52.978799, 12.978799) rotate(45.000000) translate(-52.978799, -12.978799) "></path>
        <path d="M18.5231033,41.1631036 C22.6721509,43.1966972 25.5287993,47.4617461 25.5287993,52.394001 C25.5287993,59.2975604 19.9323587,64.894001 13.0287993,64.894001 C6.12523995,64.894001 0.528799322,59.2975604 0.528799322,52.394001 C0.528799322,47.4617461 3.38544778,43.1966972 7.53449533,41.1631036 C7.53038763,41.2400807 7.52879932,41.3168554 7.52879932,41.394001 L7.52879932,41.394001 L7.52879932,50.394001 C7.52879932,53.4315671 9.9912332,55.894001 13.0287993,55.894001 C16.0663654,55.894001 18.5287993,53.4315671 18.5287993,50.394001 L18.5287993,50.394001 L18.5287993,41.394001 C18.5287993,41.319914 18.5273345,41.2461692 18.5244321,41.1727938 Z" id="Combined-Shape" fill="#2ECA77" transform="translate(13.028799, 53.028799) scale(-1, -1) rotate(45.000000) translate(-13.028799, -53.028799) "></path>
    </g>
</svg>