<?xml version="1.0" encoding="UTF-8"?>
<svg width="140px" height="20px" viewBox="0 0 140 20" version="1.1" xmlns="http://www.w3.org/2000/svg" xmlns:xlink="http://www.w3.org/1999/xlink">
    <title>SkillsDivider</title>
    <g id="SkillsDivider" stroke="none" stroke-width="1" fill="none" fill-rule="evenodd">
        <g id="Group" transform="translate(17.000000, 6.000000)" fill="#2ECA77">
            <path d="M62,0 L106,0 L106,0 C106,1.76567925 106,3.09901259 106,4 C106,4.90098741 106,6.23432075 106,8 L62,8 C59.790861,8 58,6.209139 58,4 C58,1.790861 59.790861,4.05812251e-16 62,0 Z" id="Rectangle"></path>
            <path d="M111.933008,0 C116.644336,1.93343099 119,3.29109701 119,4.07299805 C119,4.85489909 116.620329,6.16389974 111.860986,8 L111,8 L111,0 L111.933008,0 Z" id="Combined-Shape"></path>
            <path d="M4,0 L51,0 L51,0 C51,1.76567925 51,3.09901259 51,4 C51,4.90098741 51,6.23432075 51,8 L4,8 C1.790861,8 2.705415e-16,6.209139 0,4 C-2.705415e-16,1.790861 1.790861,4.05812251e-16 4,0 Z" id="Rectangle" transform="translate(25.500000, 4.000000) scale(-1, 1) translate(-25.500000, -4.000000) "></path>
        </g>
        <path d="M13,2 C17.418278,2 21,5.581722 21,10 C21,14.418278 17.418278,18 13,18 C9.64299184,18 6.76892431,15.9322854 5.58190884,13.0009677 L12,13 C13.6568542,13 15,11.6568542 15,10 C15,8.34314575 13.6568542,7 12,7 L12,7 L5.58150511,7.0000295 C6.76827252,4.06818353 9.64261119,2 13,2 Z" id="Combined-Shape" fill="#2ECA77"></path>
    </g>
</svg>