<?xml version="1.0" encoding="UTF-8"?>
<svg width="114px" height="106px" viewBox="0 0 114 106" version="1.1" xmlns="http://www.w3.org/2000/svg" xmlns:xlink="http://www.w3.org/1999/xlink">
    <title>CodeLink</title>
    <g id="CodeLink" stroke="none" stroke-width="1" fill="none" fill-rule="evenodd">
        <rect id="Rectangle" stroke="#1F1E1E" stroke-width="4" x="7" y="29" width="86" height="66" rx="8"></rect>
        <line x1="8" y1="39.5" x2="93" y2="39.5" id="Line" stroke="#1F1E1E" stroke-width="4" stroke-linecap="square"></line>
        <circle id="Oval" fill="#1F1E1E" cx="14" cy="34" r="2"></circle>
        <circle id="Oval" fill="#1F1E1E" cx="22" cy="34" r="2"></circle>
        <circle id="Oval" fill="#1F1E1E" cx="30" cy="34" r="2"></circle>
        <line x1="57" y1="58" x2="44" y2="82" id="Line-2" stroke="#1F1E1E" stroke-width="5" stroke-linecap="round"></line>
        <path d="M36,59 C24,66.103423 18,69.9367563 18,70.5 C18,71.0632437 24,74.896577 36,82" id="Path-6" stroke="#1F1E1E" stroke-width="5" stroke-linecap="round"></path>
        <path d="M82,59 C70,66.103423 64,69.9367563 64,70.5 C64,71.0632437 70,74.896577 82,82" id="Path-6" stroke="#1F1E1E" stroke-width="5" stroke-linecap="round" transform="translate(73.000000, 70.500000) scale(-1, 1) translate(-73.000000, -70.500000) "></path>
        <path d="M80.4237813,17.6157977 L111.377785,28.1304144 L87.3771204,50.3239132 L85.5687117,41.8197517 C84.2309529,42.2145635 82.9885866,42.8196548 81.8426207,43.637603 C77.6410953,46.6364967 75.4000142,53.0809449 74.6428581,55.1354206 C74.5354609,55.4268333 74.4525097,55.6495732 74.3950616,55.7905562 L74.3950616,55.7905562 L69.9463223,66.708173 L69.5810915,54.9246148 C69.4687217,51.2991906 70.1477256,40.8709513 72.3382049,36.5449248 C73.9310314,33.3992161 77.2511419,30.2569955 82.4731395,27.2614763 L82.4731395,27.2614763 L80.4237813,17.6157977 Z" id="Combined-Shape" stroke="#FFFFFF" stroke-width="5" fill="#1F1E1E"></path>
    </g>
</svg>