<?xml version="1.0" encoding="UTF-8"?>
<svg width="41px" height="41px" viewBox="0 0 41 41" version="1.1" xmlns="http://www.w3.org/2000/svg" xmlns:xlink="http://www.w3.org/1999/xlink">
    <title>NorwayAccent</title>
    <g id="NorwayAccent" stroke="none" stroke-width="1" fill="none" fill-rule="evenodd">
        <path d="M36.2309069,1.48776298 C34.4927363,0.0375453847 33.5673327,-0.479522172 30.2240709,0.50973564 C26.8808092,1.49899345 18.1430163,8.81247002 18.1430163,9.98043877 C18.1430163,10.7590846 18.8909004,10.9760442 20.3866686,10.6313177 C16.9627305,16.1046278 14.2807644,20.0543348 12.3407702,22.4804388 C9.43077888,26.1195947 7.21164568,24.9834796 5.25532095,29.5541692 C3.29899622,34.1248589 3.6576647,38.7743841 6.13276235,40.5732122 C8.60786001,42.3720403 11.4128084,38.1291715 12.3407702,37.9804388 C13.2687319,37.831706 12.9691881,40.3490911 14.1107897,39.0361028 C15.2523913,37.7231145 15.4250147,36.8459384 15.9350084,32.6537786 C16.4450022,28.4616188 15.2645983,27.3862005 15.9350084,24.0458685 C16.0937784,23.2547941 17.5333256,23.8380293 18.1430163,22.4804388 C18.5320759,21.6141246 18.6740828,19.7144805 19.4857897,17.5649114 C19.9707547,16.280623 21.0207222,13.9694251 22.635692,10.6313177 C23.7799678,10.5219334 24.5158076,10.3049738 24.8432116,9.98043877 C25.5323035,9.2973851 25.5028085,7.69546932 26.1322741,7.42990842 C27.7493889,6.74767492 28.5051292,9.28383198 30.2240709,8.19381767 C31.9430127,7.10380336 31.8212725,4.23002617 32.810985,3.69528252 C33.8006975,3.16053886 34.4042903,5.09775416 35.2582506,4.70993095 C36.112211,4.32210775 37.9690775,2.93798058 36.2309069,1.48776298 Z" id="Path-2" fill="#2ECA77"></path>
    </g>
</svg>