<?xml version="1.0" encoding="UTF-8" standalone="no"?>
<svg width="111px" height="100px" viewBox="0 0 111 100" version="1.1" xmlns="http://www.w3.org/2000/svg" xmlns:xlink="http://www.w3.org/1999/xlink">
    <!-- Generator: Sketch 47.1 (45422) - http://www.bohemiancoding.com/sketch -->
    <title>Sarah</title>
    <desc>Created with Sketch.</desc>
    <defs></defs>
    <g id="Page-1" stroke="none" stroke-width="1" fill="none" fill-rule="evenodd">
        <g id="OmOss" transform="translate(-424.000000, -1189.000000)">
            <g id="Sarah" transform="translate(424.000000, 1189.000000)">
                <path d="M2.27373675e-13,75.1656986 C3.50867046,76.3484569 7.64798111,75.9543555 12.417932,73.9833944 C15.2643659,72.8072375 22.8169541,65.3114782 27.9159095,62.1499314 C30.2130358,60.7256256 35.5620874,59.0089817 43.9630643,57 L50.7134,75.9293051 C44.9356819,84.5144441 36.3476247,88.7211991 24.9492283,88.5495701 C13.5508319,88.3779412 5.23442251,83.9166506 2.27373675e-13,75.1656986 Z" id="Path" fill="#DA9748"></path>
                <path d="M111.134659,69.7248917 C111.237067,67.1538397 109.071735,65.3974308 104.638663,64.455665 L97.5282181,74.61275 C99.591142,78.9402109 101.756474,80.6966198 104.024214,79.8819767 C107.425824,78.6600121 110.981047,73.5814696 111.134659,69.7248917 Z" id="Rectangle-2" fill="#F4D3B6" transform="translate(104.333173, 72.265616) rotate(-4.000000) translate(-104.333173, -72.265616) "></path>
                <path d="M28.134659,69.7248917 C28.2370672,67.1538397 26.0717352,65.3974308 21.638663,64.455665 L14.5282181,74.61275 C16.591142,78.9402109 18.756474,80.6966198 21.0242142,79.8819767 C24.4258244,78.6600121 27.9810468,73.5814696 28.134659,69.7248917 Z" id="Rectangle-2" fill="#F4D3B6" transform="translate(21.333173, 72.265616) scale(-1, 1) rotate(-4.000000) translate(-21.333173, -72.265616) "></path>
                <ellipse id="Oval-28" fill="#F4D3B6" cx="61.8929983" cy="49.5380287" rx="46.8929983" ry="49.5380287"></ellipse>
                <path d="M107,64 C108.291092,59.4707157 109.558196,54.5118664 109.558196,49.5380287 C109.558196,22.1789309 88.5634857,0 62.6651978,0 C54.8494495,0 47.4802944,2.01994541 41,5.59262219 L47.0233776,25.345038 C54.0131587,31.4854357 62.0053662,37.7037563 71,44 C81,51 106.200118,66.806069 107,64 Z" id="Oval-28" fill="#DA9748"></path>
                <path d="M38.9449273,6 C24.6541683,14.487904 15,30.6584435 15,49.2110212 C15,54.8034809 15.8772272,60.1794964 17.4942488,65.1938831 C18.2459435,67.5248894 34.7177929,55.3927016 38.9449273,45.2940608 C42.6741656,36.384896 44.6814842,29.7798255 44.9668831,25.4788493 L38.9449273,6 Z" id="Oval-28" fill="#DA9748"></path>
                <g id="Eye" transform="translate(78.000000, 57.000000)">
                    <ellipse fill="#000000" cx="5" cy="5.5" rx="5" ry="5.5"></ellipse>
                    <ellipse id="Oval-26" stroke="#000000" fill="#FFFFFF" cx="3.5" cy="3.85" rx="2.5" ry="2.75"></ellipse>
                    <ellipse id="Oval-26" stroke="#000000" fill="#FFFFFF" cx="7" cy="6.96666667" rx="1.66666667" ry="1.83333333"></ellipse>
                </g>
                <g id="Eye" transform="translate(43.000000, 62.500000) scale(-1, 1) translate(-43.000000, -62.500000) translate(38.000000, 57.000000)">
                    <ellipse fill="#000000" cx="5" cy="5.5" rx="5" ry="5.5"></ellipse>
                    <ellipse id="Oval-26" stroke="#000000" fill="#FFFFFF" cx="3.5" cy="3.85" rx="2.5" ry="2.75"></ellipse>
                    <ellipse id="Oval-26" stroke="#000000" fill="#FFFFFF" cx="7" cy="6.96666667" rx="1.66666667" ry="1.83333333"></ellipse>
                </g>
                <g id="Glasses" transform="translate(28.000000, 59.000000)" stroke="#000000" stroke-width="2">
                    <path d="M27.429946,2.30760041 C25.5934524,1.94264507 22.5635436,1.65069457 18.3792183,1.44393309 C11.0378996,1.08117403 2.32365418,2.92660238 1.30027677,4.74706813 C0.399855193,6.34881021 2.88376947,12.2862849 4.75652966,13.2857097 C7.09475985,14.533539 21.9270631,14.163 23.1931223,12.4336571 C24.2815326,10.9469693 25.7108163,7.54897976 27.429946,2.30760041 Z" id="Rectangle-3" transform="translate(14.416667, 7.698169) scale(-1, 1) translate(-14.416667, -7.698169) "></path>
                    <path d="M28.5,5.22727273 C31.2453497,4.77272727 33.3167783,4.54545455 34.7142857,4.54545455 C36.1117932,4.54545455 38.1832217,4.77272727 40.9285714,5.22727273" id="Line-2" stroke-linecap="square"></path>
                    <path d="M67.7156603,2.30760041 C65.8791667,1.94264507 62.8492579,1.65069457 58.6649326,1.44393309 C51.3236139,1.08117403 42.6093685,2.92660238 41.5859911,4.74706813 C40.6855695,6.34881021 43.1694838,12.2862849 45.0422439,13.2857097 C47.3804741,14.533539 62.2127774,14.163 63.4788366,12.4336571 C64.5672469,10.9469693 65.9965306,7.54897976 67.7156603,2.30760041 Z" id="Rectangle-3"></path>
                </g>
                <path d="M59,73 C60.5633681,73.3333333 61.7300347,73.5 62.5,73.5 C63.2699653,73.5 64.4366319,73.3333333 66,73" id="Line-3" stroke="#664930" stroke-linecap="round" transform="translate(62.500000, 73.500000) scale(1, -1) translate(-62.500000, -73.500000) "></path>
                <g id="Group-2" transform="translate(54.000000, 81.000000)" fill="#C72053">
                    <path d="M0,3 C3.6477322,4.04761905 6.48106554,4.57142857 8.5,4.57142857 C10.5189345,4.57142857 13.3522678,4.04761905 17,3 C14.1666667,6.33333333 11.3333333,8 8.5,8 C5.66666667,8 2.83333333,6.33333333 0,3 Z" id="Rectangle-19"></path>
                    <path d="M6,1 C6.64825916,0.882134699 7.48159249,1.21546803 8.5,2 C9.5,1.33333333 10.3333333,1 11,1 C12,1 12.325455,2.08270821 14,3 C14.5320526,3.29145081 15.5320526,3.29145081 17,3 C13.2219148,4.33333333 10.3885815,5 8.5,5 C6.61141855,5 3.77808521,4.33333333 0,3 C1.52920166,3.26299352 2.52920166,3.26299352 3,3 C4.90629387,1.93512173 5.02761127,1.17679795 6,1 Z" id="Rectangle-19"></path>
                </g>
                <circle id="Oval-8" fill="#FFFFFF" cx="22" cy="78" r="1"></circle>
                <circle id="Oval-8" fill="#FFFFFF" cx="103" cy="78" r="1"></circle>
            </g>
        </g>
    </g>
</svg>