<?xml version="1.0" encoding="UTF-8"?>
<svg width="41px" height="41px" viewBox="0 0 41 41" version="1.1" xmlns="http://www.w3.org/2000/svg" xmlns:xlink="http://www.w3.org/1999/xlink">
    <title>UKwhite</title>
    <g id="UKwhite" stroke="none" stroke-width="1" fill="none" fill-rule="evenodd">
        <path d="M20.2625331,2.52828888 C19.8801707,1.46582749 17.6866649,2.10909519 15.5218105,3.54000763 C13.3569561,4.97092007 12.8396865,6.11244639 12.2818203,7.88668732 C11.723954,9.66092825 11.8667235,10.2259037 13.2510585,12.7077322 C14.6353936,15.1895608 16.2995591,14.9849155 16.7273769,15.856658 C17.1551947,16.7284006 14.8735945,17.7550497 16.1172695,18.5480643 C17.3609445,19.3410789 19.1109494,18.9198494 20.2625331,20.4063335 C21.4141169,21.8928175 21.7452255,21.8158865 20.2625331,24.8625174 C19.9876674,25.4273105 16.7273769,24.0588065 16.7273769,25.2778006 C16.7273769,26.4967947 18.4847768,27.2974684 18.0689035,27.6519417 C16.5870634,28.9150013 15.0686855,29.7867136 15.0686855,31.0949393 C15.0686855,33.1515799 16.9232103,32.4217099 18.7798408,32.7074881 C19.7502844,32.8568617 21.3389492,32.4792854 21.3389492,32.7074881 C21.3389492,33.372283 12.4524661,37.3879726 14.2708339,38.4626151 C16.0892017,39.5372575 23.5776509,37.9019215 27.3868007,36.7304373 C31.1959505,35.5589532 32.2942181,33.3741184 32.7701015,32.7074881 C33.245985,32.0408578 30.1785488,32.7074881 30.1785488,31.9323416 C30.1785488,31.1571951 33.3904628,30.8356619 33.3904628,28.1520682 C33.3904628,25.4684744 28.9502773,24.2184744 28.4383144,23.311492 C27.9263515,22.4045096 28.2743111,21.5463321 27.3868007,20.4063335 C26.4992903,19.2663348 25.6045306,19.9549034 25.1609706,19.1017752 C24.5671376,17.9596169 24.4477912,16.4352808 23.8262539,15.4543143 C23.0075421,14.1621491 21.628421,14.0309936 21.3389492,13.1923514 C20.4403411,10.5889531 23.2647304,8.24948029 22.5775966,7.04952912 C21.8904628,5.84957794 17.9015556,7.40879939 17.4224453,6.4731131 C16.9433349,5.53742682 20.6448956,3.59075027 20.2625331,2.52828888 Z" id="Path-3" fill="#FFFFFF"></path>
        <path d="M12.5381679,17.1911307 C10.5096235,17.3410393 8.60019434,19.2105642 8.1035976,20.0295096 C7.60700086,20.8484549 9.02474387,21.8506932 9.62630268,21.9931326 C10.2278615,22.1355721 10.1914882,20.7096854 10.9761562,20.7096854 C11.7608242,20.7096854 11.1568203,22.6012869 13.3052578,21.9931326 C15.4536953,21.3849783 14.5667123,17.041222 12.5381679,17.1911307 Z" id="Path-4" fill="#FFFFFF"></path>
        <path d="M13.3023281,3.41207794 C12.69808,2.84469513 11.7245016,3.2844436 10.9456386,4.92159943 C10.1667756,6.55875526 9.88053626,8.90520494 10.2393398,9.15377716 C10.4785421,9.31949198 11.1637635,8.22037089 12.2950039,5.85641388 C13.3693854,4.6051118 13.7051601,3.79033315 13.3023281,3.41207794 Z" id="Path-5" fill="#FFFFFF"></path>
    </g>
</svg>